<?xml version="1.0" encoding="UTF-8"?>
<svg id="Livello_1" data-name="Livello 1" xmlns="http://www.w3.org/2000/svg" viewBox="0 0 1390.62 1396.88">
  <defs>
    <style>
      .cls-1 {
        fill: #020202;
      }
    </style>
  </defs>
  <path class="cls-1" d="M1046.76,992.79l162.25,160.92c16.92,16.78,31.94,30.95,52.91,46.61l-43.92-85.16-226.99-414.17,258.39-495.19c-32.86,20.72-53.74,49.04-80.8,73.5l-161.89,163.45-107.39,108.75c-15.79-11.87-26.2-22.95-36.22-38.7l153.74-155.32,199.14-198.26,87.55-86.31c24.49-24.14,46.78-48.03,73.33-71.18l-107.58,226.46-149.61,324.71-68.94,148.71,39.4,78.86,99.41,203.09,144.87,294.15c19.33,39.24,40.04,73.72,56.22,117.47l-208.67-198.79-220.38-214.59-87.71-87.12c-3.34-3.31-6.36-9.65-6.96-12.48-.6-2.82,3.56-8.82,5.73-10.7l28.2-24.44,145.93,145.75Z"/>
  <path class="cls-1" d="M831.17,669.63c13.32,75.21-29.81,146.91-96.55,167.04-69.56,20.98-142.41-15.38-169.82-87.03-15.97-41.74-12.37-88.2,11.75-128.24,20.43-33.92,55.81-60.02,98.38-65.72,74.24-9.93,142.07,33.94,156.24,113.95ZM779.43,760.34c35.8-55.4,19.38-127.35-34.84-157.51-50.95-28.33-109.68-8.83-138.32,39.84-28.48,48.39-13.44,113.23,30.52,144.58,45.9,32.73,110.45,22.91,142.64-26.91Z"/>
  <path class="cls-1" d="M363.18,973.48l124.98-125.39,33.76,35.93c-24.07,25.54-47.19,49.27-71.9,73.94l-122.9,122.71-145.96,144.53-85.29,84.3-89.84,87.38c13.52-33.33,26.49-59.18,40.8-89.05l116.26-242.64,86.05-182.57,87.33-180.48-147.52-306.61-105.79-221.85C55.5,115.7,25.83,62.9,0,0l256.69,250.4,100.2,97.67,168.7,168.87-34.75,36.34-25.67-24.88-71.58-70.09-114.75-112.71-96.38-94.11c-17.49-17.08-33.6-31.76-54.5-48.4l82.77,157.44,185.19,341.33-184.16,342.42c-27.58,51.28-53.21,97.81-79.63,155.41l231.05-226.2Z"/>
</svg>